<?xml version="1.0" encoding="UTF-8"?>
<svg version="1.1" xmlns="http://www.w3.org/2000/svg" width="445" height="251">
<path d="M0 0 C4.29479791 2.24521973 6.78607864 5.00221622 8.86328125 9.31640625 C10.43223354 15.86272444 10.10156267 20.43952515 6.86328125 26.31640625 C6.20328125 27.30640625 5.54328125 28.29640625 4.86328125 29.31640625 C4.20328125 29.31640625 3.54328125 29.31640625 2.86328125 29.31640625 C3.04676117 29.84178986 3.23024109 30.36717346 3.41928101 30.90847778 C5.33406365 36.39160792 7.24825561 41.87494401 9.16210938 47.35839844 C9.87582592 49.40304738 10.58969153 51.4476443 11.30371094 53.4921875 C12.33177541 56.43606013 13.35929835 59.38012129 14.38671875 62.32421875 C14.70450287 63.23382355 15.02228699 64.14342834 15.34970093 65.08059692 C16.88533789 69.48265317 18.40420138 73.88819441 19.86328125 78.31640625 C21.68859375 77.82140625 21.68859375 77.82140625 23.55078125 77.31640625 C29.62953065 75.9375206 35.6645304 76.14395259 41.86328125 76.31640625 C42.42015625 74.49109375 42.42015625 74.49109375 42.98828125 72.62890625 C44.75946088 67.24691598 47.18336499 62.22689081 49.65625 57.13671875 C51.06001036 54.36802658 51.06001036 54.36802658 50.86328125 51.31640625 C50.07953125 50.53265625 49.29578125 49.74890625 48.48828125 48.94140625 C44.70118752 45.15431252 43.97899055 42.7512016 43.55078125 37.44140625 C43.73412514 31.71460608 45.57167832 27.70026653 49.48828125 23.50390625 C53.78056385 20.29531876 58.68467773 19.08481401 64.0078125 19.47265625 C69.0076193 20.46688169 72.38366076 22.51310013 75.86328125 26.31640625 C78.88380448 32.09288133 79.40750299 37.03657116 77.86328125 43.31640625 C75.02582342 48.58597079 71.61994533 52.39751822 65.86328125 54.31640625 C64.13532773 54.38443592 62.4049276 54.4013627 60.67578125 54.37890625 C59.77472656 54.36988281 58.87367188 54.36085937 57.9453125 54.3515625 C57.25824219 54.33996094 56.57117188 54.32835937 55.86328125 54.31640625 C55.74146484 55.26580078 55.74146484 55.26580078 55.6171875 56.234375 C54.54626914 60.61237805 52.669785 64.5390483 50.80078125 68.62890625 C50.42373047 69.46486328 50.04667969 70.30082031 49.65820312 71.16210938 C48.73116318 73.21567887 47.79941247 75.26696912 46.86328125 77.31640625 C47.50394531 77.60773438 48.14460938 77.8990625 48.8046875 78.19921875 C59.47637091 83.25673786 66.12834189 89.16669835 70.6796875 100.31640625 C73.39362086 109.42611264 72.65234208 119.65975043 68.86328125 128.31640625 C65.72322164 134.11486441 62.158759 138.40783934 56.86328125 142.31640625 C61.19063229 146.96103761 66.07526819 150.61923225 71.17578125 154.37890625 C81.66725279 162.13046266 81.66725279 162.13046266 86.55859375 166.03515625 C87.27748779 166.60097412 87.99638184 167.16679199 88.73706055 167.74975586 C90.08580274 168.81448515 91.42382722 169.89297187 92.74926758 170.98657227 C94.74226626 172.60959365 94.74226626 172.60959365 97.86328125 174.31640625 C100.67521579 173.85383461 100.67521579 173.85383461 102.86328125 172.31640625 C108.29342215 169.74423425 112.66005839 169.6593047 118.42578125 171.37890625 C123.42455256 174.19639553 127.0311129 177.81990121 128.86328125 183.31640625 C129.42684805 189.00626336 129.19124558 193.48549028 125.86328125 198.31640625 C122.42277022 202.38767764 119.26608913 204.62304729 113.92578125 205.37890625 C109.07885893 205.57042598 105.01553869 204.9000331 100.86328125 202.31640625 C98.34604458 199.96197593 96.41242571 197.41469518 94.86328125 194.31640625 C95.03988281 193.3315625 95.21648437 192.34671875 95.3984375 191.33203125 C96.00183283 187.02334164 96.39270709 183.44812403 94.86328125 179.31640625 C90.7804577 174.14076724 84.89202362 170.63162621 79.44726562 167.03808594 C76.07526088 164.79135715 72.81729624 162.40401423 69.55029297 160.00830078 C66.68517655 157.91165276 63.79714405 155.84930515 60.89160156 153.80908203 C58.86328125 152.31640625 58.86328125 152.31640625 56.82714844 150.56982422 C52.54232504 146.93890057 52.54232504 146.93890057 47.01953125 146.38671875 C45.81296875 146.73476562 44.60640625 147.0828125 43.36328125 147.44140625 C41.5225 147.94027344 41.5225 147.94027344 39.64453125 148.44921875 C38.72671875 148.73539063 37.80890625 149.0215625 36.86328125 149.31640625 C36.36828125 153.27640625 36.36828125 153.27640625 35.86328125 157.31640625 C36.89453125 157.50203125 37.92578125 157.68765625 38.98828125 157.87890625 C43.67689507 159.19400525 46.23366392 162.35433182 48.86328125 166.31640625 C50.80123284 172.13026101 50.88383817 178.23749401 48.17578125 183.75390625 C44.77784517 187.51918677 41.47592998 191.07782605 36.25390625 191.5546875 C25.71446782 191.80375383 25.71446782 191.80375383 20.86328125 187.31640625 C16.2959582 182.25531855 15.55593733 178.44916797 15.65234375 171.81640625 C16.08210872 166.72289546 18.13686587 164.04282163 21.67578125 160.50390625 C24.93733222 158.26558696 26.96398377 157.5949275 30.86328125 157.31640625 C31.19328125 154.34640625 31.52328125 151.37640625 31.86328125 148.31640625 C31.13882813 148.19523438 30.414375 148.0740625 29.66796875 147.94921875 C24.57830552 147.06701046 19.71444779 146.15198278 14.86328125 144.31640625 C14.63125 144.98800781 14.39921875 145.65960938 14.16015625 146.3515625 C12.51841546 150.10481931 10.37364394 153.34729138 8.11328125 156.75390625 C7.12542722 158.26114572 6.1384958 159.76899016 5.15234375 161.27734375 C4.62415039 162.08397461 4.09595703 162.89060547 3.55175781 163.72167969 C0.49549125 168.4183253 -2.50658537 173.14944422 -5.51171875 177.87890625 C-6.38521973 179.25163696 -6.38521973 179.25163696 -7.27636719 180.65209961 C-8.38291824 182.39267193 -9.48471444 184.13627894 -10.58105469 185.88330078 C-11.60027163 187.47738678 -12.64973129 189.0526248 -13.73144531 190.60498047 C-14.20807617 191.30252441 -14.68470703 192.00006836 -15.17578125 192.71875 C-15.6032666 193.32066162 -16.03075195 193.92257324 -16.47119141 194.54272461 C-17.3768706 196.36402486 -17.3768706 196.36402486 -16.36083984 198.37329102 C-15.7548999 199.33513306 -15.7548999 199.33513306 -15.13671875 200.31640625 C-12.06507232 205.39643688 -11.26129279 209.50318444 -12.13671875 215.31640625 C-13.5731786 219.91794713 -15.3815675 222.70284586 -19.13671875 225.75390625 C-25.05152101 228.83453243 -30.2925718 229.19907255 -36.76171875 227.19140625 C-41.47073584 224.57528565 -44.13353539 222.00988487 -45.9921875 217.01953125 C-47.56436176 210.88328748 -47.2751059 205.88841992 -44.13671875 200.31640625 C-40.92525215 196.45511209 -37.01871901 194.34913707 -32.13671875 193.31640625 C-31.01426758 193.45067017 -31.01426758 193.45067017 -29.86914062 193.58764648 C-27.06918386 193.90772701 -24.89415742 193.9334536 -22.13671875 193.31640625 C-19.09652444 190.58687447 -17.34014827 187.24726075 -15.38671875 183.69140625 C-14.19637797 181.67515185 -13.00493857 179.6595457 -11.8125 177.64453125 C-11.21131348 176.60103516 -10.61012695 175.55753906 -9.99072266 174.48242188 C-6.9994672 169.37436277 -3.78049927 164.41616952 -0.57421875 159.44140625 C0.5535262 157.67409697 1.67989867 155.9059109 2.8046875 154.13671875 C3.31918457 153.32750977 3.83368164 152.51830078 4.36376953 151.68457031 C6.54597752 148.23823076 8.70640776 144.7786501 10.86328125 141.31640625 C10.3321875 140.77113281 9.80109375 140.22585937 9.25390625 139.6640625 C0.61199218 130.43866153 -2.50191255 122.02872003 -2.34765625 109.44140625 C-1.72559971 100.2257538 2.01413114 92.22287492 8.515625 85.64453125 C12.33922928 82.31640625 12.33922928 82.31640625 14.86328125 82.31640625 C14.52071289 81.28870117 14.17814453 80.26099609 13.82519531 79.20214844 C7.48046875 60.16796875 7.48046875 60.16796875 6.67541504 57.75231934 C6.14642776 56.16568177 5.61705246 54.57917351 5.08728027 52.99279785 C3.92087711 49.49874699 2.75833189 46.00370533 1.61523438 42.50195312 C1.25880859 41.41462891 0.90238281 40.32730469 0.53515625 39.20703125 C0.08027832 37.80759277 0.08027832 37.80759277 -0.38378906 36.37988281 C-0.95864623 34.35384976 -0.95864623 34.35384976 -2.13671875 33.31640625 C-3.82523237 33.37575647 -5.51274833 33.46433651 -7.19921875 33.56640625 C-13.11930067 33.62029516 -16.72000823 32.22307895 -21.13671875 28.31640625 C-24.87687083 24.0936539 -25.26187278 18.78980916 -25.13671875 13.31640625 C-24.31190889 8.70387734 -22.67650964 5.4684993 -19.13671875 2.37890625 C-13.55143944 -1.46097328 -6.49011946 -2.07636363 0 0 Z M12.515625 91.31640625 C5.64414141 99.63366299 3.94617724 107.70420275 4.86328125 118.31640625 C6.73962019 126.20607241 11.04215014 133.01048778 17.77734375 137.62890625 C25.73599192 141.94116183 34.01315563 143.22580343 42.86328125 141.31640625 C50.04534854 139.04776634 56.38379471 135.3760837 60.37109375 128.84765625 C64.5217984 120.78343008 66.34162683 113.48321923 64.1796875 104.46484375 C61.14004093 95.3080661 56.77957459 89.71828134 48.1640625 85.31640625 C36.10329163 80.07437341 22.06896255 81.94484468 12.515625 91.31640625 Z " fill="#CACBCB" transform="translate(205.13671875,9.68359375)"/>
<path d="M0 0 C6 0 6 0 7.63647461 1.60693359 C8.05421143 2.36312988 8.47194824 3.11932617 8.90234375 3.8984375 C9.3931543 4.75848389 9.88396484 5.61853027 10.38964844 6.50463867 C10.90043945 7.45185791 11.41123047 8.39907715 11.9375 9.375 C13.06639811 11.37891084 14.19530474 13.38281687 15.32421875 15.38671875 C15.91509277 16.4545459 16.5059668 17.52237305 17.11474609 18.62255859 C19.08577984 22.15367499 21.10531131 25.65256505 23.14453125 29.14453125 C23.83540695 30.32956704 24.52624385 31.51462546 25.21704102 32.69970703 C25.5542215 33.27803284 25.89140198 33.85635864 26.23880005 34.45220947 C27.8571773 37.22945913 29.471258 40.00904023 31.078125 42.79296875 C31.61856445 43.7264917 32.15900391 44.66001465 32.71582031 45.62182617 C34 48 34 48 35 51 C35.66 51 36.32 51 37 51 C37.24234375 50.16210938 37.4846875 49.32421875 37.734375 48.4609375 C39.16192522 44.5572045 41.10068755 41.15878909 43.25 37.625 C44.14275186 36.13460832 45.03462451 34.64368976 45.92578125 33.15234375 C46.41256348 32.34007324 46.8993457 31.52780273 47.40087891 30.69091797 C49.17677037 27.70254 50.92460747 24.69887448 52.66796875 21.69140625 C53.29219727 20.61487793 53.91642578 19.53834961 54.55957031 18.42919922 C55.79597505 16.29490617 57.03103675 14.15983442 58.26464844 12.02392578 C58.83602539 11.04020996 59.40740234 10.05649414 59.99609375 9.04296875 C60.75684204 7.72848755 60.75684204 7.72848755 61.53295898 6.38745117 C62.25914429 5.20566284 62.25914429 5.20566284 63 4 C63.64980835 2.85398315 63.64980835 2.85398315 64.31274414 1.68481445 C66 0 66 0 72 0 C72 23.1 72 46.2 72 70 C69.69 70 67.38 70 65 70 C64.67 52.51 64.34 35.02 64 17 C61.03 22.28 58.06 27.56 55 33 C52.74273292 36.88437018 50.47848157 40.76089645 48.1875 44.625 C47.64158203 45.55183594 47.09566406 46.47867188 46.53320312 47.43359375 C45.49180154 49.19402836 44.44271414 50.94994995 43.38427734 52.70019531 C42.53377081 54.11320617 41.70148381 55.53762089 40.90087891 56.97949219 C39.92578125 58.6484375 39.92578125 58.6484375 38 61 C35.37963867 61.14697266 35.37963867 61.14697266 33 61 C32.60321045 60.30664551 32.2064209 59.61329102 31.79760742 58.89892578 C30.26564119 56.22489209 28.73130292 53.55223536 27.19555664 50.88037109 C26.22825859 49.19597463 25.26348736 47.51012786 24.29882812 45.82421875 C18.7039829 36.09649791 12.85877196 26.58708139 7 17 C6.67 34.49 6.34 51.98 6 70 C4.02 70 2.04 70 0 70 C0 46.9 0 23.8 0 0 Z " fill="#D0D0D0" transform="translate(115,87)"/>
<path d="M0 0 C40.03777336 0 40.03777336 0 47.4375 5.96484375 C47.953125 6.61582031 48.46875 7.26679687 49 7.9375 C49.53625 8.58589844 50.0725 9.23429687 50.625 9.90234375 C54.94675352 16.4954734 54.69271078 23.34554583 54 31 C52.34813171 37.04433625 48.95563276 40.38651778 44 44 C42.6655237 44.99847423 41.33195418 45.99816377 40 47 C40.38333496 47.51908936 40.76666992 48.03817871 41.16162109 48.57299805 C42.90503509 50.940418 44.64006511 53.31386018 46.375 55.6875 C46.97828125 56.50412109 47.5815625 57.32074219 48.203125 58.16210938 C48.78320312 58.95810547 49.36328125 59.75410156 49.9609375 60.57421875 C50.49509277 61.30213623 51.02924805 62.03005371 51.57958984 62.7800293 C53.07032009 65.10990384 54.05498116 67.40618246 55 70 C51.91589824 70.43724819 49.97340441 70.69659946 47 70 C44.3338946 67.65543115 42.60703724 64.81667532 40.75 61.8125 C39.26428023 59.54011066 37.77585055 57.26975224 36.27832031 55.00512695 C35 53 35 53 33.40625 49.96875 C29.18317648 46.51350803 23.99687547 47.48967697 18.75 47.6875 C17.06003906 47.72133789 17.06003906 47.72133789 15.3359375 47.75585938 C12.55672388 47.81474102 9.77819363 47.90441994 7 48 C7 55.26 7 62.52 7 70 C4.69 70 2.38 70 0 70 C0 46.9 0 23.8 0 0 Z M7 6 C7 17.88 7 29.76 7 42 C11.9190625 42.061875 11.9190625 42.061875 16.9375 42.125 C17.95191162 42.14320801 18.96632324 42.16141602 20.01147461 42.18017578 C28.6036406 42.23187052 36.12183851 41.56803549 43 36 C47.13399628 31.29579734 47.35344788 26.84975469 47.2734375 20.79296875 C46.84679357 16.43510573 45.74329425 14.44670304 43 11 C37.65381989 6.94384943 32.70355107 5.86885943 26.140625 5.90234375 C25.13547852 5.90484131 24.13033203 5.90733887 23.09472656 5.90991211 C21.19158691 5.92356812 21.19158691 5.92356812 19.25 5.9375 C13.18625 5.9684375 13.18625 5.9684375 7 6 Z " fill="#D2D2D2" transform="translate(293,87)"/>
<path d="M0 0 C1.134375 0.020625 2.26875 0.04125 3.4375 0.0625 C8.51062059 10.00717957 13.23634756 20.06900704 17.8125 30.25 C19.12152714 33.1546296 20.43285096 36.05821151 21.74609375 38.9609375 C22.06423538 39.6642067 22.38237701 40.36747589 22.7101593 41.09205627 C25.69109519 47.66025856 28.78231763 54.17555076 31.99951172 60.6315918 C33.69608017 64.11159367 34.4375 66.10773273 34.4375 70.0625 C32.1275 70.0625 29.8175 70.0625 27.4375 70.0625 C26.09792079 67.27378823 24.76691565 64.48106938 23.4375 61.6875 C22.86515625 60.49640625 22.86515625 60.49640625 22.28125 59.28125 C21.9203125 58.52070313 21.559375 57.76015625 21.1875 56.9765625 C20.85234375 56.2748291 20.5171875 55.5730957 20.171875 54.85009766 C19.4375 53.0625 19.4375 53.0625 19.4375 51.0625 C6.5675 51.3925 -6.3025 51.7225 -19.5625 52.0625 C-23.5225 60.9725 -23.5225 60.9725 -27.5625 70.0625 C-30.2025 70.0625 -32.8425 70.0625 -35.5625 70.0625 C-34.02984629 65.0937119 -32.01167681 60.48800332 -29.81640625 55.7890625 C-29.44901337 54.99580566 -29.08162048 54.20254883 -28.70309448 53.38525391 C-27.51334705 50.81795524 -26.3192373 48.25271275 -25.125 45.6875 C-23.89863988 43.04502198 -22.6732731 40.40208483 -21.44795227 37.75912476 C-20.63493061 36.00571193 -19.82152638 34.25247644 -19.00773621 32.49942017 C-16.64268617 27.40271876 -14.2910303 22.30027649 -11.9609375 17.1875 C-11.45103271 16.06907715 -10.94112793 14.9506543 -10.41577148 13.79833984 C-9.49180998 11.76814197 -8.56937578 9.73724811 -7.64868164 7.70556641 C-7.04721313 6.38564697 -7.04721313 6.38564697 -6.43359375 5.0390625 C-6.09255615 4.28705566 -5.75151855 3.53504883 -5.40014648 2.76025391 C-3.87938487 -0.32204754 -3.84769561 0.06750343 0 0 Z M-0.5625 9.0625 C-2.48137692 13.04060443 -4.39719515 17.02017468 -6.3125 21 C-6.85132813 22.11697266 -7.39015625 23.23394531 -7.9453125 24.38476562 C-13.67628149 34.32245303 -13.67628149 34.32245303 -16.5625 45.0625 C-5.6725 45.0625 5.2175 45.0625 16.4375 45.0625 C13.07559718 36.65067944 13.07559718 36.65067944 9.421875 28.3984375 C8.89335937 27.25761719 8.36484375 26.11679688 7.8203125 24.94140625 C7.28148437 23.78511719 6.74265625 22.62882812 6.1875 21.4375 C5.35605469 19.64505859 5.35605469 19.64505859 4.5078125 17.81640625 C3.15336884 14.89734663 1.79655371 11.97941538 0.4375 9.0625 C0.1075 9.0625 -0.2225 9.0625 -0.5625 9.0625 Z " fill="#CDCDCD" transform="translate(388.5625,86.9375)"/>
<path d="M0 0 C4.29479791 2.24521973 6.78607864 5.00221622 8.86328125 9.31640625 C10.43223354 15.86272444 10.10156267 20.43952515 6.86328125 26.31640625 C6.20328125 27.30640625 5.54328125 28.29640625 4.86328125 29.31640625 C4.20328125 29.31640625 3.54328125 29.31640625 2.86328125 29.31640625 C3.23582031 30.29222656 3.60835937 31.26804687 3.9921875 32.2734375 C4.47053627 33.55841361 4.94837433 34.84357992 5.42578125 36.12890625 C5.79606445 37.09280273 5.79606445 37.09280273 6.17382812 38.07617188 C7.9765625 42.9765625 7.9765625 42.9765625 6.86328125 46.31640625 C6.02608742 44.02608314 5.19338835 41.73429668 4.36328125 39.44140625 C4.12480469 38.79042969 3.88632813 38.13945313 3.640625 37.46875 C1.86328125 32.54296875 1.86328125 32.54296875 1.86328125 30.31640625 C0.87328125 30.31640625 -0.11671875 30.31640625 -1.13671875 30.31640625 C-1.46671875 31.30640625 -1.79671875 32.29640625 -2.13671875 33.31640625 C-8.90412566 33.87621013 -13.9480141 33.84451703 -19.546875 29.72265625 C-23.98862258 25.79383775 -24.79470757 21.60670438 -25.1953125 15.87890625 C-25.08721006 11.1512261 -23.92384913 7.27397141 -20.703125 3.74609375 C-14.91890771 -1.30247496 -7.3130184 -2.33963111 0 0 Z " fill="#119DDB" transform="translate(205.13671875,9.68359375)"/>
<path d="M0 0 C0.33 0 0.66 0 1 0 C1 2.64 1 5.28 1 8 C2.03125 8.185625 3.0625 8.37125 4.125 8.5625 C8.81361382 9.877599 11.37038267 13.03792557 14 17 C15.93795159 22.81385476 16.02055692 28.92108776 13.3125 34.4375 C9.91456392 38.20278052 6.61264873 41.7614198 1.390625 42.23828125 C-9.14881343 42.48734758 -9.14881343 42.48734758 -14 38 C-18.56732305 32.9389123 -19.30734392 29.13276172 -19.2109375 22.5 C-18.78864077 17.49500173 -16.72751723 14.77948275 -13.375 11.1875 C-9.65521909 8.25676352 -5.6002998 8.11245177 -1 8 C-0.67 5.36 -0.34 2.72 0 0 Z " fill="#119FDD" transform="translate(240,159)"/>
<path d="M0 0 C3.69081328 4.2309323 5.41031767 8.44998834 5.65625 14.0859375 C5.18170991 20.2786857 2.50132036 24.18783285 -2 28.25 C-5.62969322 30.76286454 -8.32152619 31.05588927 -12.625 31 C-13.52605469 30.99097656 -14.42710937 30.98195312 -15.35546875 30.97265625 C-16.04253906 30.96105469 -16.72960937 30.94945312 -17.4375 30.9375 C-17.4375 30.2775 -17.4375 29.6175 -17.4375 28.9375 C-18.159375 28.875625 -18.88125 28.81375 -19.625 28.75 C-24.09520919 27.45860623 -26.4905414 24.60595087 -28.75 20.625 C-30.44095856 14.01488927 -29.79534723 8.86969677 -26.4375 2.9375 C-19.06133747 -4.60630258 -8.85715645 -6.34542552 0 0 Z " fill="#109FDE" transform="translate(278.4375,33.0625)"/>
<path d="M0 0 C4.99877131 2.81748928 8.60533165 6.44099496 10.4375 11.9375 C11.0010668 17.62735711 10.76546433 22.10658403 7.4375 26.9375 C3.99698897 31.00877139 0.84030788 33.24414104 -4.5 34 C-9.34692232 34.19151973 -13.41024256 33.52112685 -17.5625 30.9375 C-20.07973667 28.58306968 -22.01335554 26.03578893 -23.5625 22.9375 C-23.63431821 20.21989892 -23.65549506 17.52890612 -23.625 14.8125 C-23.62048828 14.05839844 -23.61597656 13.30429688 -23.61132812 12.52734375 C-23.59953499 10.66402873 -23.58159942 8.80075445 -23.5625 6.9375 C-22.5725 6.9375 -21.5825 6.9375 -20.5625 6.9375 C-20.5625 5.9475 -20.5625 4.9575 -20.5625 3.9375 C-13.28629941 -0.16176794 -8.3491744 -2.49010465 0 0 Z " fill="#109FDD" transform="translate(323.5625,181.0625)"/>
<path d="M0 0 C-0.33 0.99 -0.66 1.98 -1 3 C0.65 2.67 2.3 2.34 4 2 C4.81721717 3.10067996 5.62859451 4.20569731 6.4375 5.3125 C6.88996094 5.92738281 7.34242188 6.54226562 7.80859375 7.17578125 C10.61168409 11.46772613 10.56742724 16.06098539 10 21 C8.58759168 25.60041567 6.7444612 28.39512528 3 31.4375 C-2.91480226 34.51812618 -8.15585305 34.8826663 -14.625 32.875 C-19.33401709 30.2588794 -21.99681664 27.69347862 -23.85546875 22.703125 C-25.42764301 16.56688123 -25.13838715 11.57201367 -22 6 C-15.88177274 -1.35622632 -8.71510627 -1.27454123 0 0 Z " fill="#10A0DE" transform="translate(183,204)"/>
<path d="M0 0 C4.77711252 -1.15383982 4.77711252 -1.15383982 8 0 C11.54203417 4.04551934 14.02930488 8.69505955 16.625 13.375 C17.35402361 14.64090899 18.08577222 15.9052528 18.8203125 17.16796875 C20.24190967 19.62036165 21.64786392 22.08059624 23.04003906 24.54980469 C25.61441971 29.08158687 28.29116516 33.54763694 31 38 C34.03364497 34.36318159 36.55986618 30.6168587 39.00390625 26.5625 C39.3684642 25.95994385 39.73302216 25.3573877 40.10862732 24.73657227 C41.26326853 22.82638041 42.41295071 20.91325952 43.5625 19 C44.33756498 17.71594921 45.11295277 16.43209322 45.88867188 15.1484375 C49.8194548 8.6780984 49.8194548 8.6780984 53.61425781 2.12817383 C55 0 55 0 57.04296875 -0.48828125 C60.02148438 -0.24414062 60.02148438 -0.24414062 63 0 C61.73643431 3.36323863 60.29733382 6.34134734 58.3828125 9.37890625 C57.86364258 10.20688721 57.34447266 11.03486816 56.80957031 11.88793945 C56.25366211 12.77054443 55.69775391 13.65314941 55.125 14.5625 C54.55362305 15.49215576 53.98224609 16.42181152 53.39355469 17.37963867 C50.54609764 22.005778 47.64620607 26.54972709 44.5078125 30.984375 C35.72771047 43.77525241 34.19454534 54.60066381 35 70 C32.69 70 30.38 70 28 70 C28.03254883 69.37770508 28.06509766 68.75541016 28.09863281 68.11425781 C28.73403764 51.93221897 26.08219067 41.709286 16.76855469 28.54882812 C13.61619325 24.00566779 10.7696227 19.27218011 7.875 14.5625 C7.3190918 13.67989502 6.76318359 12.79729004 6.19042969 11.88793945 C5.67125977 11.0599585 5.15208984 10.23197754 4.6171875 9.37890625 C4.15940918 8.6526001 3.70163086 7.92629395 3.22998047 7.17797852 C1.91582879 4.85095448 0.93899107 2.49931686 0 0 Z " fill="#CACACA" transform="translate(43,87)"/>
<path d="M0 0 C2.31 0 4.62 0 7 0 C7 21.12 7 42.24 7 64 C19.87 64 32.74 64 46 64 C46 65.98 46 67.96 46 70 C30.82 70 15.64 70 0 70 C0 46.9 0 23.8 0 0 Z " fill="#D5D5D5" transform="translate(4,87)"/>
<path d="M0 0 C1.32 0.66 2.64 1.32 4 2 C2.70212451 5.48693315 1.17949987 8.50859211 -0.8359375 11.6328125 C-1.68212646 12.95297363 -1.68212646 12.95297363 -2.54541016 14.29980469 C-3.1491748 15.23211914 -3.75293945 16.16443359 -4.375 17.125 C-5.64130145 19.09071023 -6.90691314 21.05686495 -8.171875 23.0234375 C-8.81060547 24.01569336 -9.44933594 25.00794922 -10.10742188 26.03027344 C-11.91771313 28.87088009 -13.69244443 31.73000062 -15.453125 34.6015625 C-16.2567749 35.90456299 -16.2567749 35.90456299 -17.07666016 37.23388672 C-18.08918233 38.87927517 -19.0943911 40.52919236 -20.09130859 42.18408203 C-20.54844238 42.92255371 -21.00557617 43.66102539 -21.4765625 44.421875 C-21.86924316 45.06737305 -22.26192383 45.71287109 -22.66650391 46.37792969 C-24.26606096 48.32363768 -25.64096061 49.14397727 -28 50 C-28.66 49.67 -29.32 49.34 -30 49 C-28.48693273 43.24296357 -25.52356358 38.87907235 -22.25 34 C-21.08218989 32.23382844 -19.91556868 30.46687032 -18.75 28.69921875 C-18.14027344 27.7767334 -17.53054687 26.85424805 -16.90234375 25.90380859 C-12.99981817 19.94684771 -9.21153387 13.91644284 -5.40722656 7.89648438 C-4.84487305 7.00896484 -4.28251953 6.12144531 -3.703125 5.20703125 C-3.20458008 4.4178833 -2.70603516 3.62873535 -2.19238281 2.81567383 C-1 1 -1 1 0 0 Z " fill="#B8B8B8" transform="translate(212,158)"/>
<path d="M0 0 C1.32 0 2.64 0 4 0 C3.48377778 6.10453258 1.51417404 10.91478414 -1.0625 16.4375 C-1.43955078 17.26443359 -1.81660156 18.09136719 -2.20507812 18.94335938 C-3.12874358 20.96606979 -4.06046954 22.98462257 -5 25 C-5.66 24.01 -6.32 23.02 -7 22 C-7.66 22 -8.32 22 -9 22 C-6.66062389 14.33204498 -3.45231194 7.22862726 0 0 Z " fill="#BEBEBE" transform="translate(257,62)"/>
<path d="M0 0 C0.33 0 0.66 0 1 0 C1 8.58 1 17.16 1 26 C-3.65263242 21.34736758 -4.15560266 19.44132389 -4.25 13.1875 C-4.2191725 8.09479682 -3.79041146 3.79041146 0 0 Z " fill="#77CE3D" transform="translate(444,95)"/>
<path d="M0 0 C0.33 0 0.66 0 1 0 C1 5.61 1 11.22 1 17 C-0.98 16.01 -2.96 15.02 -5 14 C-4.53411505 8.29290936 -3.06242216 4.84060277 0 0 Z " fill="#72C53B" transform="translate(444,137)"/>
<path d="M0 0 C0.33 0 0.66 0 1 0 C1.41518628 3.52908336 0.99344202 5.0119449 -0.75 8.1875 C-2.80876816 10.7609602 -3.88418354 12.06525506 -7 13 C-7.66 12.67 -8.32 12.34 -9 12 C-8.34 10.02 -7.68 8.04 -7 6 C-6.01 6 -5.02 6 -4 6 C-3.71125 5.38125 -3.4225 4.7625 -3.125 4.125 C-2 2 -2 2 0 0 Z " fill="#BFC4C6" transform="translate(191,195)"/>
<path d="M0 0 C-0.59104765 4.84659077 -1.97944157 8.60748167 -4 13 C-4.66 12.01 -5.32 11.02 -6 10 C-6.66 10 -7.32 10 -8 10 C-7.57742724 8.5164999 -7.13643678 7.03823576 -6.6875 5.5625 C-6.32205078 4.32693359 -6.32205078 4.32693359 -5.94921875 3.06640625 C-5.63597656 2.38449219 -5.32273438 1.70257813 -5 1 C-2 0 -2 0 0 0 Z " fill="#B2B2B2" transform="translate(256,74)"/>
<path d="M0 0 C0.24360427 2.92325122 0.19608294 4.62847443 -1.1875 7.25 C-3.40308719 9.38918764 -4.98197607 9.67372714 -8 10 C-7.45276317 6.62537285 -6.9451 4.91765 -5 2 C-1.52631579 0 -1.52631579 0 0 0 Z " fill="#BDBDBD" transform="translate(204,176)"/>
<path d="M0 0 C0.625 1.875 0.625 1.875 1 4 C0.34 4.66 -0.32 5.32 -1 6 C-1.33 5.34 -1.66 4.68 -2 4 C-3.32 5.65 -4.64 7.3 -6 9 C-6.66 8.67 -7.32 8.34 -8 8 C-4 1.42857143 -4 1.42857143 0 0 Z " fill="#A8A8A8" transform="translate(193,192)"/>
<path d="M0 0 C3 0 3 0 5 1 C4.34 2.65 3.68 4.3 3 6 C2.34 5.34 1.68 4.68 1 4 C-0.98 4.99 -0.98 4.99 -3 6 C-2.01 4.02 -1.02 2.04 0 0 Z " fill="#A3A3A3" transform="translate(195,184)"/>
<path d="M0 0 C1.32 0.66 2.64 1.32 4 2 C3.34 3.65 2.68 5.3 2 7 C1.34 6.34 0.68 5.68 0 5 C-0.99 5.33 -1.98 5.66 -3 6 C-1.125 1.125 -1.125 1.125 0 0 Z " fill="#A2A2A2" transform="translate(212,158)"/>
<path d="M0 0 C0.99 0.33 1.98 0.66 3 1 C3 2.65 3 4.3 3 6 C2.01 6.495 2.01 6.495 1 7 C0.67 6.34 0.34 5.68 0 5 C-0.99 5.33 -1.98 5.66 -3 6 C-1.125 1.125 -1.125 1.125 0 0 Z " fill="#ABABAB" transform="translate(203,172)"/>
<path d="M0 0 C1.32 0 2.64 0 4 0 C3.67 2.31 3.34 4.62 3 7 C2.34 6.01 1.68 5.02 1 4 C0.34 4 -0.32 4 -1 4 C-0.67 2.68 -0.34 1.36 0 0 Z " fill="#ABADAE" transform="translate(257,62)"/>
<path d="M0 0 C-1.49097658 3.7952131 -3.75700849 5.61042731 -7 8 C-4.18918919 0 -4.18918919 0 0 0 Z " fill="#0A6F9C" transform="translate(167,206)"/>
<path d="M0 0 C-1.28519565 2.86697492 -2.57129254 4.97607712 -5 7 C-5.66 7 -6.32 7 -7 7 C-3.86206897 0 -3.86206897 0 0 0 Z " fill="#096F9D" transform="translate(230,169)"/>
<path d="M0 0 C0.66 0 1.32 0 2 0 C0.70700306 2.88437779 -0.65941363 4.87219421 -3 7 C-3.66 6.67 -4.32 6.34 -5 6 C-3.38405168 3.95880212 -1.7143618 1.95927063 0 0 Z " fill="#0A6F9B" transform="translate(256,32)"/>
<path d="M0 0 C0.66 0.33 1.32 0.66 2 1 C0.02 3.31 -1.96 5.62 -4 8 C-4.33 7.34 -4.66 6.68 -5 6 C-3.35 4.02 -1.7 2.04 0 0 Z " fill="#086B95" transform="translate(187,11)"/>
</svg>
